<?xml version="1.0" standalone="no"?>
<!DOCTYPE svg PUBLIC "-//W3C//DTD SVG 20010904//EN"
 "http://www.w3.org/TR/2001/REC-SVG-20010904/DTD/svg10.dtd">
<svg version="1.0" xmlns="http://www.w3.org/2000/svg"
 width="1024.000000pt" height="1024.000000pt" viewBox="0 0 1024.000000 1024.000000"
 preserveAspectRatio="xMidYMid meet">
<metadata>
Created by potrace 1.14, written by Peter Selinger 2001-2017
</metadata>
<g transform="translate(0.000000,1024.000000) scale(0.100000,-0.100000)"
fill="#000000" stroke="none">
<path d="M2716 8662 c-2 -1 -43 -5 -92 -7 -49 -3 -102 -7 -119 -9 -16 -2 -59
-7 -95 -11 -36 -4 -74 -9 -85 -11 -11 -3 -33 -7 -50 -9 -16 -3 -41 -7 -55 -10
-14 -4 -34 -8 -45 -9 -52 -9 -90 -18 -200 -47 -66 -16 -124 -33 -130 -37 -5
-3 -15 -7 -21 -8 -14 -2 -131 -42 -159 -54 -11 -5 -36 -15 -55 -23 -122 -52
-165 -72 -168 -79 -2 -4 -11 -8 -21 -8 -9 0 -21 -4 -26 -9 -6 -4 -41 -25 -80
-46 -64 -35 -233 -144 -262 -169 -31 -27 -43 -36 -48 -36 -16 0 -250 -228
-323 -315 -100 -118 -233 -341 -290 -485 -12 -30 -27 -68 -33 -85 -14 -35 -12
-30 -39 -125 -58 -209 -75 -345 -74 -605 1 -247 15 -389 59 -590 48 -215 137
-432 251 -605 16 -25 32 -46 37 -48 4 -2 7 -8 7 -14 0 -5 6 -15 13 -22 6 -7
30 -35 52 -62 171 -210 411 -377 755 -527 102 -44 368 -123 545 -162 27 -6
124 -25 150 -29 17 -3 41 -7 55 -10 51 -10 205 -31 300 -41 25 -3 64 -8 86
-10 44 -6 153 -14 244 -20 135 -8 237 -16 260 -21 14 -2 54 -7 89 -11 l63 -6
-6 29 c-11 52 -15 76 -22 133 -3 31 -8 59 -10 63 -2 3 -6 35 -9 70 -3 34 -7
79 -10 98 -24 162 -24 691 0 870 3 19 7 60 10 90 3 30 7 62 10 70 9 31 -4 38
-93 45 -32 3 -73 7 -92 9 -19 3 -53 7 -75 10 -22 2 -65 7 -95 11 -30 3 -75 10
-100 15 -25 5 -63 12 -85 15 -153 21 -439 114 -453 147 -2 4 -9 8 -15 8 -22 0
-103 65 -146 116 -72 86 -108 180 -107 276 1 32 -3 58 -7 58 -5 0 -6 3 -3 8 2
4 7 28 10 52 16 114 42 176 110 266 114 150 309 259 571 319 154 36 426 40
574 9 124 -25 215 -56 301 -100 l65 -34 49 98 c26 53 52 99 57 100 5 2 9 8 9
14 0 12 79 148 97 166 7 7 13 20 13 27 0 8 6 18 14 22 7 4 19 19 26 33 16 30
169 236 199 267 12 12 21 24 21 27 0 8 67 80 210 225 128 129 193 190 280 259
22 18 23 21 8 36 -9 9 -21 16 -26 16 -6 0 -12 3 -14 8 -7 16 -277 150 -403
200 -112 44 -277 98 -326 107 -18 3 -37 9 -42 12 -9 6 -34 12 -117 28 -14 3
-45 10 -70 15 -25 5 -58 12 -75 14 -16 2 -30 5 -30 6 0 1 -18 3 -40 6 -91 10
-111 13 -140 18 -81 12 -510 28 -519 18z"/>
<path d="M6677 8624 c-2 -2 -30 -6 -63 -9 -56 -5 -85 -8 -178 -19 -55 -7 -145
-23 -186 -32 -14 -3 -41 -8 -60 -10 -19 -3 -43 -7 -52 -10 -10 -3 -29 -7 -42
-10 -95 -17 -408 -112 -511 -155 -16 -6 -36 -13 -43 -15 -6 -1 -31 -11 -55
-22 -57 -27 -141 -65 -147 -67 -8 -2 -203 -103 -245 -128 -73 -41 -140 -81
-150 -89 -5 -5 -26 -19 -45 -31 -94 -62 -237 -168 -297 -222 -6 -5 -37 -32
-69 -60 -105 -92 -289 -283 -355 -370 -13 -16 -26 -32 -29 -35 -17 -16 -120
-161 -120 -170 0 -5 -3 -10 -8 -10 -4 0 -18 -20 -32 -45 -14 -25 -27 -45 -30
-45 -3 0 -16 -21 -30 -47 -14 -27 -30 -54 -37 -61 -7 -7 -13 -19 -13 -27 0 -7
-4 -15 -8 -17 -11 -4 -132 -253 -170 -348 -37 -93 -79 -207 -91 -246 -21 -68
-59 -201 -66 -229 -18 -77 -55 -253 -61 -295 -3 -19 -9 -62 -14 -95 -51 -331
-56 -747 -14 -1065 3 -25 8 -67 11 -95 5 -56 7 -67 16 -110 4 -16 9 -46 11
-65 6 -40 11 -69 25 -125 8 -33 22 -94 23 -102 0 -1 11 -40 24 -85 14 -46 26
-90 28 -98 2 -8 13 -41 24 -73 11 -31 18 -57 16 -57 -3 0 2 -10 10 -22 9 -12
16 -28 16 -36 0 -7 7 -29 17 -50 9 -20 17 -39 17 -42 6 -26 136 -301 161 -340
5 -8 10 -17 11 -20 2 -17 165 -274 176 -278 4 -2 8 -10 8 -18 0 -8 5 -14 10
-14 6 0 10 -7 10 -15 0 -8 4 -15 9 -15 4 0 21 -19 37 -42 16 -23 36 -50 44
-59 8 -9 33 -38 55 -65 94 -115 310 -329 395 -393 19 -14 44 -34 55 -45 39
-36 254 -185 355 -246 148 -90 329 -180 480 -240 30 -12 69 -28 85 -35 38 -16
99 -35 105 -33 3 0 24 -9 48 -21 23 -12 42 -20 42 -17 0 2 21 -3 48 -11 101
-32 229 -63 423 -102 25 -6 68 -13 95 -16 27 -3 63 -8 79 -11 17 -3 48 -7 70
-9 22 -2 76 -7 120 -12 154 -16 683 -8 786 12 12 3 45 7 73 10 123 12 338 54
471 91 50 14 100 27 113 30 53 11 278 90 317 112 17 9 31 15 32 14 8 -5 276
122 358 171 132 78 255 160 255 169 0 4 4 7 9 5 5 -1 21 9 37 23 16 14 53 43
82 65 28 21 52 43 52 47 0 4 4 8 10 8 5 0 22 12 38 28 125 119 188 181 226
226 25 28 56 65 71 81 56 64 176 235 242 345 122 204 228 441 283 630 11 41
25 83 31 92 5 10 9 27 9 39 0 11 4 28 9 37 5 9 11 31 14 47 3 17 12 59 20 95
9 36 18 82 21 104 4 21 8 41 10 45 3 6 14 78 21 144 3 30 10 28 -106 29 -37 0
-70 -2 -75 -4 -5 -3 -18 -2 -29 2 -11 4 -29 4 -40 1 -11 -4 -31 -6 -45 -4 -27
3 -161 5 -176 2 -5 -1 -13 0 -19 1 -5 1 -26 2 -45 1 -19 0 -53 0 -75 0 -22 -1
-49 -1 -60 -2 -11 0 -26 0 -32 0 -7 0 -38 1 -68 1 -30 0 -63 0 -72 0 -10 0
-34 0 -53 -1 -19 0 -41 0 -47 0 -7 0 -24 1 -38 1 -14 0 -32 0 -40 0 -8 0 -40
0 -70 0 -30 0 -61 -1 -67 -1 -7 0 -40 1 -74 2 -34 1 -65 0 -70 -3 -5 -3 -18
-2 -29 2 -11 4 -29 4 -40 1 -11 -4 -29 -6 -40 -5 -23 3 -63 5 -85 4 -8 0 -41
0 -73 1 -31 1 -60 -1 -63 -4 -3 -3 -16 -2 -28 2 -34 12 -69 -1 -73 -29 -2 -14
-6 -32 -10 -40 -3 -8 -7 -18 -8 -22 -2 -5 -3 -9 -4 -10 -2 -2 -4 -13 -7 -26
-2 -13 -26 -71 -52 -130 -125 -280 -330 -507 -579 -642 -21 -12 -45 -25 -53
-30 -8 -5 -37 -18 -65 -30 -27 -12 -59 -26 -70 -31 -76 -34 -248 -76 -397 -98
-121 -18 -409 -22 -498 -6 -79 13 -148 28 -195 41 -27 7 -61 16 -75 19 -27 7
-29 8 -145 56 -192 80 -365 197 -515 349 -148 151 -224 254 -330 455 -20 39
-45 90 -54 115 -10 25 -23 56 -29 70 -5 14 -11 30 -13 35 -1 6 -14 43 -28 83
-13 39 -23 72 -20 72 3 0 0 8 -5 18 -9 18 -12 29 -26 97 -3 14 -7 37 -11 53
-30 150 -38 256 -37 462 1 160 17 344 37 430 4 14 9 41 12 60 13 81 66 259
100 337 8 17 14 34 14 38 0 13 111 230 121 236 6 3 10 8 8 10 -2 4 70 118 81
129 3 3 21 25 40 50 77 100 264 268 375 337 55 34 183 102 205 108 14 4 30 11
35 15 14 12 214 77 255 84 19 3 46 8 60 11 26 6 37 8 150 24 65 9 374 8 460
-2 69 -7 133 -17 153 -23 11 -4 29 -7 40 -9 12 -2 37 -8 55 -13 18 -6 33 -11
35 -10 20 3 266 -91 293 -113 6 -5 14 -6 17 -2 4 3 7 2 7 -4 0 -6 15 -18 34
-27 51 -24 183 -125 245 -187 80 -80 176 -201 217 -274 64 -113 92 -173 146
-302 12 -32 15 -33 73 -33 101 -1 1484 -1 1578 0 l89 0 -7 28 c-3 15 -7 43 -9
62 -7 67 -73 341 -101 420 -8 22 -14 41 -14 43 1 9 -59 173 -82 224 -10 24
-19 45 -19 47 0 7 -97 203 -130 264 -43 77 -134 216 -203 307 -269 356 -625
645 -1047 852 -121 59 -374 163 -397 163 -7 0 -21 4 -31 10 -18 10 -74 27
-202 62 -93 25 -101 27 -205 48 -82 17 -99 20 -130 24 -16 2 -41 7 -55 10 -14
3 -47 8 -75 11 -27 3 -63 8 -80 11 -85 12 -185 16 -437 19 -153 1 -279 1 -281
-1z"/>
<path d="M146 3678 c6 -174 13 -230 58 -453 8 -37 58 -190 83 -250 61 -149
134 -281 232 -421 19 -27 37 -51 40 -54 4 -3 26 -30 51 -60 83 -100 223 -232
340 -320 18 -14 39 -31 46 -37 7 -7 15 -13 19 -13 6 0 66 -40 75 -51 3 -3 12
-9 20 -13 23 -11 56 -31 71 -42 8 -6 39 -25 69 -41 30 -16 64 -35 75 -40 11
-6 52 -26 90 -43 39 -17 78 -36 88 -41 68 -36 419 -154 492 -165 11 -2 45 -10
75 -18 30 -8 56 -13 59 -11 2 3 10 0 18 -6 7 -6 13 -9 13 -6 0 3 26 -1 58 -8
31 -7 80 -16 107 -20 28 -4 64 -8 80 -11 173 -23 273 -28 525 -28 229 1 381 7
440 19 14 3 45 7 70 10 25 3 56 7 70 10 14 2 41 6 60 9 189 27 504 115 705
196 104 41 325 149 347 168 17 14 15 17 -25 46 -23 17 -44 33 -47 36 -3 3 -18
16 -35 29 -110 84 -350 317 -460 446 -33 39 -63 72 -66 75 -3 3 -29 37 -58 75
-29 39 -58 77 -66 86 -57 71 -275 427 -275 449 0 6 -4 10 -10 10 -5 0 -10 7
-10 16 0 11 -4 14 -12 7 -23 -16 -176 -60 -243 -69 -16 -3 -41 -7 -55 -10 -75
-18 -422 -24 -525 -10 -112 15 -134 18 -215 38 -47 11 -89 21 -95 22 -15 3
-105 36 -150 56 -22 10 -47 20 -55 24 -31 13 -109 62 -134 84 -15 12 -29 22
-33 22 -16 0 -143 145 -149 170 0 3 -10 27 -22 53 -27 60 -33 81 -35 137 l-3
45 -851 3 -851 2 4 -102z"/>
</g>
</svg>
