<svg width="902" height="182" viewBox="0 0 902 182" fill="none" xmlns="http://www.w3.org/2000/svg">
<g opacity="0.3">
<path d="M3 40.95L22.7552 101.573C23.2889 103.21 25.5052 103.452 26.3798 101.968L46.4041 67.9946C46.576 67.703 46.8191 67.4598 47.1106 67.2877L72.7074 52.1822C73.8039 51.5351 75.2179 52.0637 75.621 53.2715L92.9598 105.219C93.0835 105.59 93.3131 105.916 93.6202 106.158L124.955 130.814C125.974 131.615 127.474 131.251 128.012 130.072L155.749 69.2753C156.19 68.3079 157.311 67.855 158.3 68.2443L176.25 75.3058C177.086 75.6348 178.039 75.3657 178.579 74.6479L208.913 34.371C209.931 33.019 212.064 33.4642 212.456 35.1106L223.338 80.7782C223.697 82.2818 225.553 82.828 226.668 81.7581L268.423 41.7172C268.92 41.2399 269.629 41.0527 270.297 41.2218L307.865 50.7232C308.376 50.8525 308.918 50.7747 309.372 50.5067L357.152 22.31C358.277 21.6462 359.726 22.2211 360.09 23.4756L376.858 81.3253C377.253 82.6877 378.901 83.2174 380.015 82.3403L417.449 52.8862C418.605 51.9766 420.314 52.5842 420.637 54.0193L436.718 125.56C437.159 127.523 439.895 127.68 440.558 125.78L457.505 77.2037C457.785 76.4005 458.543 75.8625 459.393 75.8625H489.476C490.045 75.8625 490.587 76.105 490.967 76.5292L515.764 104.256C516.514 105.095 517.809 105.15 518.628 104.377L564.342 61.213C565.355 60.2559 567.013 60.6034 567.556 61.887L579.429 89.9132C579.964 91.1757 581.582 91.5379 582.604 90.624L626.311 51.5438C626.75 51.1514 627.34 50.9723 627.923 51.0542L685.389 59.1286C685.887 59.1986 686.341 59.454 686.659 59.8437L723.928 105.459C724.104 105.676 724.324 105.853 724.574 105.979L753.484 120.602C753.677 120.7 753.885 120.766 754.1 120.797L832.835 132.209C833.589 132.318 834.214 132.845 834.45 133.569L839.191 148.117C839.792 149.962 842.405 149.956 842.997 148.108L860.596 93.2125C860.746 92.7455 861.062 92.3498 861.484 92.1006L889 75.8625" stroke="#353945"/>
<path d="M1 26.5417L38.3936 108.812C39.1934 110.572 41.7767 110.286 42.172 108.394L52.0109 61.305C52.0877 60.9374 52.2664 60.5989 52.5266 60.3282L72.324 39.7302C73.3481 38.6648 75.1341 39.0396 75.6435 40.4268L103.78 117.06C103.896 117.376 104.09 117.658 104.344 117.879L140.808 149.622C141.912 150.583 143.641 150.071 144.044 148.664L169.459 59.9043C169.996 58.0278 172.628 57.9535 173.27 59.7966L183.972 90.5031C184.498 92.0118 186.493 92.3254 187.456 91.0507L221.423 46.1008C222.225 45.0401 223.819 45.0422 224.618 46.1051L251.232 81.5218C252.116 82.6988 253.926 82.5491 254.605 81.2428L282.835 26.9378C283.591 25.4836 285.679 25.5061 286.404 26.9762L304.948 64.607C305.603 65.9362 307.426 66.1164 308.328 64.941L356.077 2.76246C357.017 1.53805 358.931 1.79537 359.515 3.22464L391.313 81.1112C391.87 82.4764 393.663 82.7896 394.651 81.694L431.739 40.5335C432.864 39.2844 434.935 39.8972 435.2 41.5575L451.104 141.354C451.451 143.532 454.551 143.627 455.031 141.475L472.563 62.9765C472.827 61.7944 474.073 61.1165 475.209 61.5367L503.946 72.1675C504.357 72.3195 504.707 72.6023 504.941 72.9723L529.572 111.816C530.34 113.028 532.097 113.061 532.91 111.877L577.632 46.7359C578.487 45.4901 580.362 45.6064 581.057 46.9483L603.814 90.9015C604.528 92.281 606.474 92.3551 607.291 91.0341L639.629 38.7598C640.114 37.9756 641.072 37.6247 641.949 37.9104L761.187 76.7517C762.211 77.0855 762.787 78.1708 762.489 79.2063L750.871 119.595C750.406 121.209 752.018 122.642 753.567 121.992L782.758 109.736C783.526 109.414 784.414 109.601 784.986 110.207L815.553 142.567L850.803 179.32C851.905 180.469 853.844 179.932 854.197 178.379L872.834 96.3812C872.932 95.9528 873.167 95.5683 873.505 95.2873L901 72.4019" stroke="#777E91"/>
</g>
</svg>
