<svg width="176" height="15" viewBox="0 0 176 15" fill="none" xmlns="http://www.w3.org/2000/svg">
<path d="M7.42617 1.95482C7.6433 1.45166 8.35674 1.45166 8.57387 1.95482L9.93639 5.11225C10.0283 5.3253 10.2307 5.46988 10.4621 5.48776L13.9562 5.75776C14.5169 5.80107 14.7396 6.50486 14.306 6.86286L11.6783 9.0324C11.4929 9.18543 11.4118 9.43119 11.4695 9.66451L12.2782 12.9322C12.4112 13.4696 11.8315 13.9018 11.3544 13.621L8.3171 11.8329C8.12141 11.7177 7.87863 11.7177 7.68294 11.8329L4.64561 13.621C4.16855 13.9018 3.58884 13.4696 3.72183 12.9322L4.53055 9.66451C4.58829 9.43119 4.50712 9.18543 4.32177 9.0324L1.69403 6.86286C1.26043 6.50486 1.48318 5.80107 2.0438 5.75776L5.53796 5.48776C5.76931 5.46988 5.97172 5.3253 6.06365 5.11225L7.42617 1.95482Z" fill="#353945"/>
<path d="M47.4262 1.95482C47.6433 1.45166 48.3567 1.45166 48.5739 1.95482L49.9364 5.11225C50.0283 5.3253 50.2307 5.46988 50.4621 5.48776L53.9562 5.75776C54.5169 5.80107 54.7396 6.50486 54.306 6.86286L51.6783 9.0324C51.4929 9.18543 51.4118 9.43119 51.4695 9.66451L52.2782 12.9322C52.4112 13.4696 51.8315 13.9018 51.3544 13.621L48.3171 11.8329C48.1214 11.7177 47.8786 11.7177 47.6829 11.8329L44.6456 13.621C44.1685 13.9018 43.5888 13.4696 43.7218 12.9322L44.5305 9.66451C44.5883 9.43119 44.5071 9.18543 44.3218 9.0324L41.694 6.86286C41.2604 6.50486 41.4832 5.80107 42.0438 5.75776L45.538 5.48776C45.7693 5.46988 45.9717 5.3253 46.0637 5.11225L47.4262 1.95482Z" fill="#353945"/>
<path d="M87.4262 1.95482C87.6433 1.45166 88.3567 1.45166 88.5739 1.95482L89.9364 5.11225C90.0283 5.3253 90.2307 5.46988 90.4621 5.48776L93.9562 5.75776C94.5169 5.80107 94.7396 6.50486 94.306 6.86286L91.6783 9.0324C91.4929 9.18543 91.4118 9.43119 91.4695 9.66451L92.2782 12.9322C92.4112 13.4696 91.8315 13.9018 91.3544 13.621L88.3171 11.8329C88.1214 11.7177 87.8786 11.7177 87.6829 11.8329L84.6456 13.621C84.1685 13.9018 83.5888 13.4696 83.7218 12.9322L84.5305 9.66451C84.5883 9.43119 84.5071 9.18543 84.3218 9.0324L81.694 6.86286C81.2604 6.50486 81.4832 5.80107 82.0438 5.75776L85.538 5.48776C85.7693 5.46988 85.9717 5.3253 86.0637 5.11225L87.4262 1.95482Z" fill="#353945"/>
<path d="M127.426 1.95482C127.643 1.45166 128.357 1.45166 128.574 1.95482L129.936 5.11225C130.028 5.3253 130.231 5.46988 130.462 5.48776L133.956 5.75776C134.517 5.80107 134.74 6.50486 134.306 6.86286L131.678 9.0324C131.493 9.18543 131.412 9.43119 131.469 9.66451L132.278 12.9322C132.411 13.4696 131.831 13.9018 131.354 13.621L128.317 11.8329C128.121 11.7177 127.879 11.7177 127.683 11.8329L124.646 13.621C124.169 13.9018 123.589 13.4696 123.722 12.9322L124.531 9.66451C124.588 9.43119 124.507 9.18543 124.322 9.0324L121.694 6.86286C121.26 6.50486 121.483 5.80107 122.044 5.75776L125.538 5.48776C125.769 5.46988 125.972 5.3253 126.064 5.11225L127.426 1.95482Z" fill="#353945"/>
<path d="M167.426 1.95482C167.643 1.45166 168.357 1.45166 168.574 1.95482L169.936 5.11225C170.028 5.3253 170.231 5.46988 170.462 5.48776L173.956 5.75776C174.517 5.80107 174.74 6.50486 174.306 6.86286L171.678 9.0324C171.493 9.18543 171.412 9.43119 171.469 9.66451L172.278 12.9322C172.411 13.4696 171.831 13.9018 171.354 13.621L168.317 11.8329C168.121 11.7177 167.879 11.7177 167.683 11.8329L164.646 13.621C164.169 13.9018 163.589 13.4696 163.722 12.9322L164.531 9.66451C164.588 9.43119 164.507 9.18543 164.322 9.0324L161.694 6.86286C161.26 6.50486 161.483 5.80107 162.044 5.75776L165.538 5.48776C165.769 5.46988 165.972 5.3253 166.064 5.11225L167.426 1.95482Z" fill="#353945"/>
</svg>
