<svg width="33" height="27" viewBox="0 0 33 27" fill="none" xmlns="http://www.w3.org/2000/svg">
<path fill-rule="evenodd" clip-rule="evenodd" d="M0.458252 4.75C0.458252 2.33376 2.41701 0.375 4.83325 0.375H28.1666C30.5828 0.375 32.5416 2.33375 32.5416 4.75V22.25C32.5416 24.6662 30.5828 26.625 28.1666 26.625H4.83325C2.41701 26.625 0.458252 24.6662 0.458252 22.25V4.75ZM6.29159 17.875C6.29159 17.0696 6.9445 16.4167 7.74992 16.4167C8.55534 16.4167 9.20825 17.0696 9.20825 17.875V20.7917C9.20825 21.5971 8.55534 22.25 7.74992 22.25C6.9445 22.25 6.29159 21.5971 6.29159 20.7917V17.875ZM13.5833 7.66667C12.7778 7.66667 12.1249 8.31959 12.1249 9.125V20.7917C12.1249 21.5971 12.7778 22.25 13.5833 22.25C14.3887 22.25 15.0416 21.5971 15.0416 20.7917V9.125C15.0416 8.31958 14.3887 7.66667 13.5833 7.66667ZM17.9583 12.0417C17.9583 11.2363 18.6112 10.5833 19.4166 10.5833C20.222 10.5833 20.8749 11.2363 20.8749 12.0417V20.7917C20.8749 21.5971 20.222 22.25 19.4166 22.25C18.6112 22.25 17.9583 21.5971 17.9583 20.7917V12.0417ZM25.2499 4.75C24.4445 4.75 23.7916 5.40292 23.7916 6.20833V20.7917C23.7916 21.5971 24.4445 22.25 25.2499 22.25C26.0553 22.25 26.7083 21.5971 26.7083 20.7917V6.20833C26.7083 5.40292 26.0553 4.75 25.2499 4.75Z" fill="#353945"/>
</svg>
