<svg width="30" height="31" viewBox="0 0 30 31" fill="none" xmlns="http://www.w3.org/2000/svg">
<path fill-rule="evenodd" clip-rule="evenodd" d="M29.5833 15.5C29.5833 23.5542 23.0541 30.0833 15 30.0833C6.94581 30.0833 0.416626 23.5542 0.416626 15.5C0.416626 7.44585 6.94581 0.916672 15 0.916672C23.0541 0.916672 29.5833 7.44585 29.5833 15.5ZM10.5844 18.0737C10.395 17.2909 9.60681 16.8098 8.82398 16.9992C8.04116 17.1887 7.56011 17.9768 7.74953 18.7597C8.13295 20.3442 9.07334 21.7404 10.3935 22.7305C11.7121 23.7195 13.3367 24.25 15.0003 24.25C16.6639 24.25 18.2884 23.7195 19.6071 22.7305C20.9272 21.7404 21.8676 20.3442 22.2511 18.7597C22.4405 17.9768 21.9594 17.1887 21.1766 16.9992C20.3938 16.8098 19.6056 17.2909 19.4162 18.0737C19.1983 18.9743 18.6567 19.7975 17.8571 20.3972C17.056 20.998 16.0488 21.3333 15.0003 21.3333C13.9518 21.3333 12.9446 20.998 12.1435 20.3972C11.3439 19.7975 10.8023 18.9743 10.5844 18.0737ZM12.3434 14.0182C11.551 14.1621 10.792 13.6362 10.6481 12.8437C10.6417 12.8085 10.6337 12.7767 10.6247 12.7482C10.6157 12.7767 10.6077 12.8085 10.6013 12.8437C10.4575 13.6362 9.69844 14.1621 8.90597 14.0182C8.1135 13.8744 7.58766 13.1154 7.73148 12.3229C7.85284 11.6542 8.16033 11.0033 8.66056 10.5031C9.16742 9.99623 9.85641 9.66667 10.6247 9.66667C11.393 9.66667 12.082 9.99623 12.5888 10.5031C13.0891 11.0033 13.3966 11.6542 13.5179 12.3229C13.6618 13.1154 13.1359 13.8744 12.3434 14.0182ZM19.3981 12.8437C19.542 13.6362 20.301 14.1621 21.0934 14.0182C21.8859 13.8744 22.4118 13.1154 22.2679 12.3229C22.1466 11.6542 21.8391 11.0033 21.3389 10.5031C20.832 9.99623 20.143 9.66667 19.3747 9.66667C18.6064 9.66667 17.9174 9.99623 17.4106 10.5031C16.9103 11.0033 16.6028 11.6542 16.4815 12.3229C16.3377 13.1154 16.8635 13.8744 17.656 14.0182C18.4484 14.1621 19.2075 13.6362 19.3513 12.8437C19.3577 12.8085 19.3657 12.7767 19.3747 12.7482C19.3837 12.7767 19.3918 12.8085 19.3981 12.8437Z" fill="#353945"/>
</svg>
