<svg width="25" height="25" viewBox="0 0 25 25" fill="none" xmlns="http://www.w3.org/2000/svg">
<path fill-rule="evenodd" clip-rule="evenodd" d="M3.24081 13.78C3.40768 11.4712 5.22266 9.67871 7.53282 9.53187C8.91435 9.44405 10.6036 9.375 12.5 9.375C14.3964 9.375 16.0856 9.44405 17.4672 9.53187C19.7773 9.67871 21.5923 11.4712 21.7592 13.78C21.8265 14.7119 21.875 15.7135 21.875 16.6667C21.875 17.6198 21.8265 18.6215 21.7592 19.5533C21.5923 21.8621 19.7773 23.6546 17.4672 23.8015C16.0856 23.8893 14.3964 23.9583 12.5 23.9583C10.6036 23.9583 8.91435 23.8893 7.53282 23.8015C5.22267 23.6546 3.40768 21.8621 3.24081 19.5533C3.17346 18.6215 3.125 17.6198 3.125 16.6667C3.125 15.7135 3.17346 14.7119 3.24081 13.78ZM14.5833 15.625C14.5833 16.3961 14.1644 17.0694 13.5417 17.4296V18.75C13.5417 19.3253 13.0753 19.7917 12.5 19.7917C11.9247 19.7917 11.4583 19.3253 11.4583 18.75V17.4296C10.8356 17.0694 10.4167 16.3961 10.4167 15.625C10.4167 14.4744 11.3494 13.5417 12.5 13.5417C13.6506 13.5417 14.5833 14.4744 14.5833 15.625Z" fill="#FCFCFD"/>
<path fill-rule="evenodd" clip-rule="evenodd" d="M7.2915 6.25002C7.2915 3.37354 9.62335 1.04169 12.4998 1.04169C15.3763 1.04169 17.7082 3.37354 17.7082 6.25002V10.4167C17.7082 10.992 17.2418 11.4584 16.6665 11.4584C16.0912 11.4584 15.6248 10.992 15.6248 10.4167V6.25002C15.6248 4.52413 14.2257 3.12502 12.4998 3.12502C10.7739 3.12502 9.37484 4.52413 9.37484 6.25002V10.4167C9.37484 10.992 8.90847 11.4584 8.33317 11.4584C7.75787 11.4584 7.2915 10.992 7.2915 10.4167V6.25002Z" fill="#FCFCFD"/>
</svg>
