<svg width="385" height="168" viewBox="0 0 385 168" fill="none" xmlns="http://www.w3.org/2000/svg">
<g opacity="0.3">
<path d="M-1 26.95L18.7552 87.5725C19.2889 89.2102 21.5052 89.4522 22.3798 87.9684L42.4041 53.9946C42.576 53.703 42.8191 53.4598 43.1106 53.2877L68.7074 38.1822C69.8039 37.5351 71.2179 38.0637 71.621 39.2715L88.9598 91.2193C89.0835 91.59 89.3131 91.9163 89.6202 92.1579L120.955 116.814C121.974 117.615 123.474 117.251 124.012 116.072L151.749 55.2753C152.19 54.3079 153.311 53.855 154.3 54.2443L172.25 61.3058C173.086 61.6348 174.039 61.3657 174.579 60.6479L204.913 20.371C205.931 19.019 208.064 19.4642 208.456 21.1106L219.338 66.7782C219.697 68.2818 221.553 68.828 222.668 67.7581L264.423 27.7172C264.92 27.2399 265.629 27.0527 266.297 27.2218L303.865 36.7232C304.376 36.8525 304.918 36.7747 305.372 36.5067L353.152 8.30999C354.277 7.64617 355.726 8.22115 356.09 9.47563L372.858 67.3253C373.253 68.6877 374.901 69.2174 376.015 68.3403L413.449 38.8862C414.605 37.9766 416.314 38.5842 416.637 40.0193L432.718 111.56C433.159 113.523 435.895 113.68 436.558 111.78L453.505 63.2037C453.785 62.4005 454.543 61.8625 455.393 61.8625H485.476C486.045 61.8625 486.587 62.105 486.967 62.5292L511.764 90.2559C512.514 91.095 513.809 91.1497 514.628 90.3768L560.342 47.213C561.355 46.2559 563.013 46.6034 563.556 47.887L575.429 75.9132C575.964 77.1757 577.582 77.5379 578.604 76.624L622.311 37.5438C622.75 37.1514 623.34 36.9723 623.923 37.0542L681.389 45.1286C681.887 45.1986 682.341 45.454 682.659 45.8437L719.928 91.4594C720.104 91.6757 720.324 91.8526 720.574 91.9787L749.484 106.602C749.677 106.7 749.885 106.766 750.1 106.797L828.835 118.209C829.589 118.318 830.214 118.845 830.45 119.569L835.191 134.117C835.792 135.962 838.405 135.956 838.997 134.108L856.596 79.2125C856.746 78.7455 857.062 78.3498 857.484 78.1006L885 61.8625" stroke="#FCFCFD"/>
<path d="M-3 12.5417L34.3936 94.8123C35.1934 96.5722 37.7767 96.2861 38.172 94.3938L48.0109 47.305C48.0877 46.9374 48.2664 46.5989 48.5266 46.3282L68.324 25.7302C69.3481 24.6648 71.1341 25.0396 71.6435 26.4268L99.7802 103.06C99.8963 103.376 100.09 103.658 100.344 103.879L136.808 135.622C137.912 136.583 139.641 136.071 140.044 134.664L165.459 45.9043C165.996 44.0278 168.628 43.9535 169.27 45.7966L179.972 76.5031C180.498 78.0118 182.493 78.3254 183.456 77.0507L217.423 32.1008C218.225 31.0401 219.819 31.0422 220.618 32.1051L247.232 67.5218C248.116 68.6988 249.926 68.5491 250.605 67.2428L278.835 12.9378C279.591 11.4836 281.679 11.5061 282.404 12.9762L300.948 50.607C301.603 51.9362 303.426 52.1164 304.328 50.941L352.077 -11.2375C353.017 -12.462 354.931 -12.2046 355.515 -10.7754L387.313 67.1112C387.87 68.4764 389.663 68.7896 390.651 67.694L427.739 26.5335C428.864 25.2844 430.935 25.8972 431.2 27.5575L447.104 127.354C447.451 129.532 450.551 129.627 451.031 127.475L468.563 48.9765C468.827 47.7944 470.073 47.1165 471.209 47.5367L499.946 58.1675C500.357 58.3195 500.707 58.6023 500.941 58.9723L525.572 97.8164C526.34 99.0284 528.097 99.0605 528.91 97.8774L573.632 32.7359C574.487 31.4901 576.362 31.6064 577.057 32.9483L599.814 76.9015C600.528 78.281 602.474 78.3551 603.291 77.0341L635.629 24.7598C636.114 23.9756 637.072 23.6247 637.949 23.9104L757.187 62.7517C758.211 63.0855 758.787 64.1708 758.489 65.2063L746.871 105.595C746.406 107.209 748.018 108.642 749.567 107.992L778.758 95.7362C779.526 95.4136 780.414 95.6012 780.986 96.2069L811.553 128.567L846.803 165.32C847.905 166.469 849.844 165.932 850.197 164.379L868.834 82.3812C868.932 81.9528 869.167 81.5683 869.505 81.2873L897 58.4019" stroke="#E6E8EC"/>
</g>
</svg>
